<svg width="544" height="745" viewBox="0 0 544 745" fill="none" xmlns="http://www.w3.org/2000/svg">
<path d="M44 39H504V149H44V39Z" fill="#281C18" stroke="black" stroke-width="4"/>
<rect x="22" y="12" width="500" height="700" fill="#3E2F2B"/>
<path d="M44 39H504V149H44V39Z" fill="#281C18" stroke="black" stroke-width="4"/>
<path d="M54 41H502V139H54V41Z" fill="#312523"/>
<path d="M44 166H504V276H44V166Z" fill="#281C18" stroke="black" stroke-width="4"/>
<path d="M54 168H502V266H54V168Z" fill="#312523"/>
<path d="M44 293H504V403H44V293Z" fill="#281C18" stroke="black" stroke-width="4"/>
<path d="M54 295H502V393H54V295Z" fill="#312523"/>
<path d="M44 420H504V530H44V420Z" fill="#281C18" stroke="black" stroke-width="4"/>
<path d="M54 422H502V520H54V422Z" fill="#312523"/>
<path d="M44 547H504V657H44V547Z" fill="#281C18" stroke="black" stroke-width="4"/>
<path d="M54 549H502V647H54V549Z" fill="#312523"/>
<rect x="2" y="2" width="540" height="20" fill="#3E2F2B" stroke="black" stroke-width="4"/>
<rect x="19" y="692" width="497" height="20" fill="#3E2F2B" stroke="black" stroke-width="4"/>
<rect x="15" y="22" width="20" height="721" fill="#3E2F2B" stroke="black" stroke-width="4"/>
<rect x="512" y="22" width="20" height="721" fill="#3E2F2B" stroke="black" stroke-width="4"/>
<rect x="4" y="4" width="10" height="16" fill="#2C1F1C"/>
<rect x="17" y="24" width="16" height="15" fill="#2C1F1C"/>
<rect x="37" y="694" width="473" height="5" fill="#2C1F1C"/>
<rect x="17" y="725" width="16" height="16" fill="#2C1F1C"/>
<rect x="514" y="24" width="16" height="15" fill="#2C1F1C"/>
<rect x="530" y="4" width="10" height="16" fill="#2C1F1C"/>
<rect x="514" y="725" width="16" height="16" fill="#2C1F1C"/>
</svg>
